<svg style="position: absolute; width: 0; height: 0; overflow: hidden;" version="1.1" xmlns="http://www.w3.org/2000/svg" xmlns:xlink="http://www.w3.org/1999/xlink">
<defs>
<symbol id="icon-question" viewBox="0 0 32 32">
<title>question</title>
<path d="M16 32c-8.837 0-16-7.163-16-16s7.163-16 16-16c8.837 0 16 7.163 16 16s-7.163 16-16 16zM16 29.333c7.364 0 13.333-5.97 13.333-13.333s-5.97-13.333-13.333-13.333c-7.364 0-13.333 5.97-13.333 13.333s5.97 13.333 13.333 13.333z"></path>
<path d="M21.333 13.333c0-2.87-2.464-5.333-5.333-5.333-2.042 0-3.99 1.398-4.926 3.27l-0.596 1.193 2.385 1.193 0.596-1.193c0.512-1.024 1.588-1.796 2.541-1.796 1.397 0 2.667 1.27 2.667 2.667s-1.27 2.667-2.667 2.667h-1.333v4h2.667v-1.513c2.259-0.616 4-2.742 4-5.154z"></path>
<path d="M14.667 21.333v4h2.667v-4z"></path>
</symbol>
</defs>
</svg>